<mxfile host="app.diagrams.net" modified="2021-01-06T12:55:34.363Z" agent="5.0 (Windows)" etag="4RLZl1GjdU7XxJ_Y8KhX" version="14.1.8" type="github">
  <diagram id="EHF9RoEMLKjq6_hwJI8f" name="Page-1">
    <mxGraphModel dx="1422" dy="763" grid="1" gridSize="10" guides="1" tooltips="1" connect="1" arrows="1" fold="1" page="1" pageScale="1" pageWidth="827" pageHeight="1169" math="0" shadow="0">
      <root>
        <mxCell id="0" />
        <mxCell id="1" parent="0" />
        <mxCell id="7luXm3dFE43Gyl8Y9zC--1" value="" style="rounded=0;whiteSpace=wrap;html=1;" vertex="1" parent="1">
          <mxGeometry width="480" height="270" as="geometry" />
        </mxCell>
        <mxCell id="7luXm3dFE43Gyl8Y9zC--2" value="light" style="whiteSpace=wrap;html=1;aspect=fixed;" vertex="1" parent="1">
          <mxGeometry x="4" y="4" width="32" height="32" as="geometry" />
        </mxCell>
        <mxCell id="7luXm3dFE43Gyl8Y9zC--3" value="home" style="whiteSpace=wrap;html=1;aspect=fixed;" vertex="1" parent="1">
          <mxGeometry x="444" y="4" width="32" height="32" as="geometry" />
        </mxCell>
        <mxCell id="7luXm3dFE43Gyl8Y9zC--4" value="0" style="text;html=1;strokeColor=none;fillColor=none;align=center;verticalAlign=middle;whiteSpace=wrap;rounded=0;" vertex="1" parent="1">
          <mxGeometry x="440" y="36" width="40" height="20" as="geometry" />
        </mxCell>
        <mxCell id="7luXm3dFE43Gyl8Y9zC--5" value="&lt;div&gt;video&lt;/div&gt;&lt;div&gt;star/off&lt;/div&gt;&lt;div&gt;store&lt;/div&gt;" style="whiteSpace=wrap;html=1;aspect=fixed;" vertex="1" parent="1">
          <mxGeometry x="224" y="208" width="32" height="32" as="geometry" />
        </mxCell>
        <mxCell id="7luXm3dFE43Gyl8Y9zC--7" value="noob&amp;nbsp; cv f**k me" style="text;html=1;strokeColor=none;fillColor=none;align=center;verticalAlign=middle;whiteSpace=wrap;rounded=0;fontSize=20;fontStyle=1" vertex="1" parent="1">
          <mxGeometry x="140" y="125" width="190" height="20" as="geometry" />
        </mxCell>
      </root>
    </mxGraphModel>
  </diagram>
</mxfile>
